<svg width="800" height="800" viewBox="0 0 800 800" fill="none" xmlns="http://www.w3.org/2000/svg">
<path d="M333.333 400L466.667 533.333M466.667 400L333.333 533.333M600 200L573.303 600.43C570.967 635.5 569.797 653.037 562.223 666.333C555.553 678.04 545.493 687.45 533.37 693.327C519.6 700 502.023 700 466.873 700H333.126C297.976 700 280.401 700 266.63 693.327C254.506 687.45 244.446 678.04 237.777 666.333C230.202 653.037 229.033 635.5 226.695 600.43L200 200M133.333 200H666.667M533.333 200L524.313 172.936C515.57 146.708 511.197 133.595 503.09 123.899C495.93 115.338 486.737 108.711 476.35 104.626C464.587 100 450.767 100 423.12 100H376.88C349.233 100 335.413 100 323.65 104.626C313.264 108.711 304.07 115.338 296.91 123.899C288.802 133.595 284.431 146.708 275.688 172.936L266.667 200" stroke="#821010" stroke-width="66.6667" stroke-linecap="round" stroke-linejoin="round"/>
</svg>
