<svg width="1024" height="1024" viewBox="0 0 1024 1024" fill="none" xmlns="http://www.w3.org/2000/svg">
<path d="M143.206 507.504L221.037 38.6852H406.001C441.406 38.6852 470.555 44.9422 493.446 57.4562C516.49 69.9703 532.667 87.7494 541.976 110.794C551.438 133.685 553.651 160.697 548.615 191.83C543.426 222.962 532.209 249.669 514.964 271.95C497.872 294.231 475.591 311.4 448.121 323.456C420.804 335.36 389.137 341.311 353.121 341.311H229.278L243.013 261.649H350.603C369.527 261.649 385.703 259.054 399.133 253.866C412.563 248.677 423.169 240.894 430.952 230.516C438.888 220.139 444.077 207.243 446.519 191.83C449.113 176.111 448.197 162.986 443.772 152.456C439.346 141.773 431.334 133.685 419.736 128.191C408.137 122.545 392.876 119.721 373.952 119.721H307.109L242.326 507.504H143.206ZM431.639 294.155L499.398 468.474L668.738 507.504H403.483L324.736 294.155H431.639Z" fill="#2BE5B7"/>
<path d="M610.079 984.679H441.597L514.507 544.703L405.6 515.86H684.705C731.862 515.86 771.006 525.474 802.139 544.703C833.424 563.932 855.476 591.478 868.295 627.341C881.115 663.052 883.404 705.707 875.163 755.305C867.227 803.225 851.432 844.353 827.777 878.691C804.123 912.875 773.83 939.124 736.898 957.438C699.966 975.598 657.693 984.679 610.079 984.679ZM554.91 899.751H615.802C645.255 899.751 671.047 894.257 693.175 883.269C715.456 872.281 733.693 855.341 747.886 832.45C762.231 809.558 772.38 780.257 778.332 744.546C783.978 710.667 783.597 683.197 777.187 662.137C770.93 640.924 758.798 625.434 740.79 615.667C722.782 605.747 699.127 600.787 669.826 600.787H604.585L554.91 899.751Z" fill="#23947E"/>
</svg>
