<svg width="800" height="800" viewBox="0 0 800 800" fill="none" xmlns="http://www.w3.org/2000/svg">
<path d="M100 150H700C713.261 150 725.979 155.268 735.355 164.645C744.732 174.021 750 186.739 750 200C750 213.261 744.732 225.979 735.355 235.355C725.979 244.732 713.261 250 700 250H100C86.7392 250 74.0215 244.732 64.6447 235.355C55.2678 225.979 50 213.261 50 200C50 186.739 55.2678 174.021 64.6447 164.645C74.0215 155.268 86.7392 150 100 150ZM100 350H700C713.261 350 725.979 355.268 735.355 364.645C744.732 374.021 750 386.739 750 400C750 413.261 744.732 425.979 735.355 435.355C725.979 444.732 713.261 450 700 450H100C86.7392 450 74.0215 444.732 64.6447 435.355C55.2678 425.979 50 413.261 50 400C50 386.739 55.2678 374.021 64.6447 364.645C74.0215 355.268 86.7392 350 100 350ZM100 550H700C713.261 550 725.979 555.268 735.355 564.645C744.732 574.021 750 586.739 750 600C750 613.261 744.732 625.979 735.355 635.355C725.979 644.732 713.261 650 700 650H100C86.7392 650 74.0215 644.732 64.6447 635.355C55.2678 625.979 50 613.261 50 600C50 586.739 55.2678 574.021 64.6447 564.645C74.0215 555.268 86.7392 550 100 550Z" fill="white"/>
</svg>
